<?xml version="1.0" encoding="utf-8"?>
<!-- Generator: Adobe Illustrator 21.0.0, SVG Export Plug-In . SVG Version: 6.00 Build 0)  -->
<svg version="1.1" id="Layer_1" xmlns="http://www.w3.org/2000/svg" xmlns:xlink="http://www.w3.org/1999/xlink" x="0px" y="0px"
	 viewBox="0 0 2500 2500" style="enable-background:new 0 0 2500 2500;" xml:space="preserve">
<style type="text/css">
	.st0{fill:#BE1E2D;}
	.st1{fill:#1C75BC;}
</style>
<g>
	<path class="st0" d="M1132.5,1625.8c-4.3,0.2-8.7,0.3-13.1,0.3c-162.5,0-294.2-131.7-294.2-294.2c0-25.4,3.2-50,9.3-73.6l61-61.4
		l5.7,47.6c-15.9,34.3-24.9,72.6-24.9,113C876.3,1501.7,989.9,1619.3,1132.5,1625.8z"/>
	<path class="st0" d="M1413.6,1331.9c0,4.4-0.1,8.8-0.3,13.1c-6.5-142.5-124.2-256.1-268.3-256.1c-47,0-91.1,12-129.5,33.2
		l-47.9-2.3l57.9-66.8c29.5-9.9,61.1-15.3,93.9-15.3C1281.8,1037.7,1413.6,1169.4,1413.6,1331.9z"/>
	<polygon class="st1" points="649.6,1429.8 903.1,1174.7 922.8,1338.5 931.3,1176.3 1207.1,1413.1 949.6,1155.6 1106.7,1136.7 
		946,1129.1 1181.1,857.8 927.7,1110.2 908.2,948.2 900.6,1111.3 628.5,876.5 884,1132 719.8,1150.9 882.3,1158.6 	"/>
</g>
<path class="st0" d="M70.6,1626.1v-28.7H103c17.3,0,31.1-6.4,41.3-19.3c10.2-12.9,15.3-30.4,15.3-52.5V1040
	c-0.6-16.2-8.7-24.2-24.2-24.2H70.6V987h174.8l306.4,492.4v-393.2c0-21.7-5.1-38.9-15.3-51.6c-10.2-12.6-23.6-19-40.4-19h-32.3V987
	h213.6v28.7h-32.3c-16.8,0-30.5,6.4-41.3,19.3c-10.8,12.9-16.2,30.4-16.2,52.5v554.7h-35.9L199,1084.9h-3.6v440.7
	c0,22.1,5.2,39.7,15.7,52.5c10.5,12.9,24.1,19.3,40.8,19.3h32.3v28.7H70.6z"/>
<path class="st0" d="M1637.9,1642.3l-208.3-587.3c-5.4-14.8-12.3-25.1-20.6-30.7c-8.4-5.6-19.2-8.5-32.3-8.5h-56.5V987h285.5v28.7
	h-59.2c-8.4,0-15.6,2.3-21.5,6.8c-6,4.5-8.9,9.8-8.9,15.8c0,6.6,1.2,13.3,3.5,19.9l154.2,432.8l119.6-365.5
	c7-22.2,10.6-43.2,10.6-63c0-12.6-3.7-23.5-11.1-32.8c-7.4-9.3-18.9-14-34.4-14h-48.5V987h241.4v28.7H1918
	c-35.9,0-61,21.9-75.4,65.5l-182.2,561H1637.9z"/>
<path class="st0" d="M1806.3,1626.1v-28.7h33.2c34.7,0,59.8-21.8,75.4-65.5L2109.6,987h22.4l194.8,570.9
	c10.8,26.3,28.7,39.5,53.9,39.5h50.3v28.7h-278.4v-28.7h59.2c9,0,16.5-2.2,22.4-6.7c6-4.5,9-9.7,9-15.7c0-7.8-1.2-14.3-3.6-19.7
	l-39.5-117.6h-201.3l-21.5,60.5c-9.3,23.4-13.9,41-13.9,52.7c0,12.3,3.7,23.1,11,32.5s19.4,14.1,36.1,14.1h47.6v28.7H1806.3z
	 M2010.8,1405.3h177.4l-90.2-262.6L2010.8,1405.3z"/>
</svg>
